# xmcd CD database file
#
# Track frame offsets:
#	150
#	19061
#	36027
#	55275
#	75460
#	92282
#	107269
#	121574
#	133649
#	148488
#	164757
#	179701
#	195467
#	210781
#	228437
#	242735
#	258805
#	274488
#	289682
#	303946
#
# Disc length: 4265 seconds
#
# Revision: 0
# Processed by: cddbd v1.5.1PL2 Copyright (c) Steve Scherf et al.
# Submitted via: CDex 1.51
#
DISCID=0e10a714
DTITLE=Cesar and Paulinho e João Pedro and Cristiano - Dose Dupla Sertaneja
DYEAR=2000
DGENRE=Country
TTITLE0=I Love You Baby
TTITLE1=Toma Conta De Mim
TTITLE2=Ninguém Vive Sem Amor
TTITLE3=Frente a Frente
TTITLE4=Quando O Amor É Pra Valer
TTITLE5=Tudo Outra Vez
TTITLE6=Meu Coração Parou
TTITLE7=Veneno Em Minhas Veias
TTITLE8=Nas Asas De Um Beija-Flor
TTITLE9=Volta De Uma Vez
TTITLE10=Tic Tic Nervoso
TTITLE11=Era Só Pra Ficar
TTITLE12=Cavagalda Do Amor
TTITLE13=Onde Anda Você
TTITLE14=Amargurado
TTITLE15=Por Toda Vida
TTITLE16=Morena Ai Ai
TTITLE17=Quem Tem Saudade
TTITLE18=Tô Indo Embora
TTITLE19=Vida Cigana
EXTD=YEAR: 2000
EXTT0=
EXTT1=
EXTT2=
EXTT3=
EXTT4=
EXTT5=
EXTT6=
EXTT7=
EXTT8=
EXTT9=
EXTT10=
EXTT11=
EXTT12=
EXTT13=
EXTT14=
EXTT15=
EXTT16=
EXTT17=
EXTT18=
EXTT19=
PLAYORDER=
